<?xml version="1.0" standalone="no"?>
<!DOCTYPE svg PUBLIC "-//W3C//DTD SVG 20010904//EN"
 "http://www.w3.org/TR/2001/REC-SVG-20010904/DTD/svg10.dtd">
<svg version="1.0" xmlns="http://www.w3.org/2000/svg"
 width="2048.000000pt" height="2048.000000pt" viewBox="0 0 2048.000000 2048.000000"
 preserveAspectRatio="xMidYMid meet">

<g transform="translate(0.000000,2048.000000) scale(0.100000,-0.100000)"
fill="#000000" stroke="none">
<path d="M10477 18653 c-2 -16 -177 -1236 -388 -2713 -210 -1477 -385 -2689
-389 -2693 -4 -4 -56 -19 -116 -32 -647 -146 -1256 -533 -1685 -1070 -86 -107
-221 -310 -279 -417 -23 -43 -47 -78 -55 -78 -10 0 -2122 300 -5365 761 -311
44 -595 83 -631 86 l-67 6 -15 -54 c-33 -116 -38 -142 -38 -208 -1 -129 60
-198 208 -236 32 -8 1293 -191 2803 -407 3013 -430 2913 -418 3020 -367 83 39
121 77 238 241 283 398 578 677 957 905 197 119 365 195 629 287 86 30 176 66
201 80 95 56 148 132 178 256 14 57 785 5455 802 5618 7 63 2 85 -8 35z"/>
<path d="M17888 15247 c-27 -107 -94 -311 -141 -429 -14 -35 -46 -116 -71
-181 -26 -66 -55 -135 -66 -155 -11 -21 -49 -102 -86 -182 -37 -80 -72 -152
-79 -160 -7 -8 -27 -44 -45 -80 -43 -85 -150 -274 -159 -280 -4 -3 -21 -27
-37 -55 -42 -74 -185 -287 -262 -391 -137 -186 -161 -216 -253 -325 -486 -578
-934 -990 -1582 -1453 -232 -166 -570 -385 -707 -458 -36 -20 -121 -68 -190
-108 -69 -40 -192 -107 -275 -150 l-150 -77 -251 35 -251 36 -13 65 c-22 114
-89 331 -146 476 -192 483 -514 919 -924 1248 -172 138 -477 334 -494 316 -3
-3 -13 -62 -22 -132 -13 -104 -14 -139 -4 -194 22 -127 66 -182 252 -314 240
-170 417 -324 570 -496 288 -326 483 -660 629 -1081 64 -186 93 -245 146 -298
49 -48 102 -77 188 -99 69 -18 5511 -794 5625 -802 102 -7 172 13 222 64 54
55 70 108 76 251 4 120 5 122 28 122 l24 0 0 278 c0 1750 -484 3418 -1422
4904 -55 87 -103 160 -107 162 -4 3 -14 -23 -23 -57z"/>
<path d="M1116 9870 c-48 -113 -24 -729 50 -1300 168 -1296 613 -2535 1316
-3660 604 -968 1433 -1858 2353 -2530 673 -490 1376 -873 2140 -1165 255 -97
636 -222 724 -236 187 -31 281 53 320 286 45 261 783 5512 791 5623 5 78 26
256 45 394 19 139 33 253 32 253 -1 1 -33 19 -72 40 -113 62 -312 195 -425
285 -135 106 -384 355 -489 489 -161 203 -296 425 -402 661 -51 115 -66 140
-83 140 -12 0 -129 -7 -261 -15 -315 -19 -940 -35 -1340 -35 -481 1 -1264 33
-1710 70 -66 5 -158 12 -205 15 -507 29 -1789 198 -2455 324 -55 11 -118 22
-140 25 -22 4 -63 11 -92 17 l-51 10 -6 107 c-4 59 -10 139 -14 177 l-7 70
-19 -45z"/>
<path d="M12931 8725 c-136 -236 -288 -433 -491 -635 -398 -399 -871 -666
-1421 -805 -79 -19 -143 -36 -144 -38 -4 -6 -110 -742 -330 -2282 -549 -3847
-552 -3867 -540 -3871 9 -4 9 -19 3 -57 -16 -93 -13 -228 6 -272 38 -89 108
-132 237 -145 97 -9 495 4 749 25 1971 166 3780 936 5285 2249 183 160 642
615 791 786 652 743 1148 1514 1531 2375 150 336 289 707 379 1008 50 168 59
270 30 328 -14 29 -13 39 39 217 83 289 98 353 89 361 -5 4 -225 38 -489 75
-264 37 -1013 144 -1665 237 -652 92 -1806 256 -2565 364 -759 107 -1390 197
-1401 200 -18 4 -32 -13 -93 -120z"/>
</g>
</svg>
